<svg width="282" height="32" viewBox="0 0 282 32" fill="none" xmlns="http://www.w3.org/2000/svg">
<g clip-path="url(#clip0_89_90)">
<path d="M17.0462 0.645264H30.2348V6.61773H16.19C13.6549 6.61773 11.7327 7.09385 10.4233 8.04608C8.64009 8.99981 7.27548 10.8404 6.32945 13.568C6.13819 14.3504 6.03308 15.1521 6.01607 15.9583C6.01607 18.2743 6.86573 20.4521 8.56506 22.4918C9.67735 23.5867 10.722 24.3114 11.6989 24.6658C12.77 25.16 14.2405 25.407 16.1105 25.407H30.2348V31.3772H16.7726C13.3313 31.3772 10.7823 30.9507 9.12562 30.0976C5.42241 28.4455 2.76969 25.742 1.16747 21.9871C0.385396 20.0922 -0.0117751 18.055 1.06725e-05 15.9989C1.06725e-05 11.4239 1.77584 7.5189 5.32751 4.28372C7.65213 2.48289 9.75459 1.41951 11.6349 1.09359C12.5971 0.796209 14.4009 0.646766 17.0462 0.645264ZM14.4973 13.0566H30.2348V18.9637H14.4973V13.0566Z" fill="white"/>
<path d="M49.9359 14.877V19.3242H34.6641V14.877H49.9359Z" fill="white"/>
<path d="M51.2182 0.667786H67.9731C74.0436 0.667786 78.2566 3.37579 80.6121 8.79179C81.1902 10.3442 81.4805 11.9928 81.4684 13.6536C81.4684 17.2582 80.0898 20.4123 77.3327 23.1158C75.6333 24.6508 73.5507 25.6886 71.0849 26.2293C70.1302 26.3667 69.1667 26.4307 68.2026 26.4208L57.2563 26.5492V31.3682H51.1763V20.4776H67.7282C69.888 20.4776 71.4689 20.0654 72.4708 19.2408C73.7523 18.4027 74.6719 17.051 75.2295 15.1856C75.3262 14.7581 75.3817 14.3219 75.395 13.8834V13.2413C75.395 11.6342 74.7197 10.0707 73.369 8.55073C71.9625 7.28759 70.4029 6.65528 68.6904 6.65377H51.2182V0.667786Z" fill="white"/>
<path d="M84.5979 0.667786H90.6559V15.1901C90.6559 19.2558 92.1809 22.2124 95.2308 24.0598C96.5682 24.9609 98.3441 25.4115 100.558 25.4115H114.888V31.3817H100.764C96.9382 31.3817 93.8809 30.5639 91.5916 28.9283C90.9546 28.5979 89.9968 27.7996 88.7182 26.5335C87.0616 24.629 85.9404 22.7103 85.3549 20.7773C84.8546 19.3129 84.6038 17.2154 84.6023 14.4849L84.5979 0.667786Z" fill="white"/>
<path d="M134.401 0.625H148.305V31.375H142.274V6.61775L136.884 6.63802H135.589C132.58 6.63802 130.909 6.76644 130.575 7.02327C128.752 7.53664 127.148 8.65411 126.015 10.1999C124.678 12.1524 124.009 14.0929 124.009 16.0214C124.009 18.4095 124.915 20.6061 126.726 22.6112C127.938 23.7917 128.983 24.5021 129.86 24.7424C130.742 25.193 132.253 25.4183 134.393 25.4183H138.586V31.3682H133.563C129.83 31.3682 126.676 30.3657 124.1 28.3606C122.234 26.8587 120.988 25.4941 120.361 24.2671C118.8 21.7378 118.02 19.1507 118.022 16.5058V15.6046C118.022 11.9098 119.38 8.5192 122.096 5.43271C123.738 3.80761 125.081 2.78104 126.126 2.35298C127.116 1.83105 128.161 1.42303 129.239 1.13641C130.422 0.79547 132.143 0.625 134.401 0.625Z" fill="white"/>
<path d="M163.623 31.375V26.342C161.197 25.6796 158.929 24.5181 156.958 22.9288C155.302 21.4088 154.223 20.1435 153.721 19.1327C153.024 17.9902 152.483 16.7563 152.112 15.4649C151.671 14.0441 151.45 12.1103 151.45 9.66366V0.667786H157.508V9.94303C157.508 12.6465 158.023 14.7297 159.053 16.1926C159.26 16.6612 159.928 17.4077 161.057 18.432C162.616 19.7416 164.573 20.4575 166.593 20.4575C168.612 20.4575 170.569 19.7416 172.129 18.432C173.257 17.4062 173.926 16.6597 174.135 16.1926C175.165 14.7282 175.68 12.645 175.68 9.94303V0.667786H181.738V9.66592C181.738 12.1126 181.517 14.0463 181.076 15.4672C180.718 16.7635 180.176 17.9993 179.467 19.1349C178.967 20.1442 177.895 21.4096 176.251 22.9311C174.271 24.5165 171.997 25.6768 169.567 26.342V31.375H163.623Z" fill="white"/>
<path d="M201.911 0.645264H215.093V6.61773H201.05C198.517 6.61773 196.595 7.09385 195.286 8.04608C193.503 8.99981 192.138 10.8404 191.192 13.568C191.001 14.3504 190.896 15.1521 190.879 15.9583C190.879 18.2743 191.728 20.4521 193.425 22.4917C194.539 23.5867 195.584 24.3113 196.559 24.6658C197.632 25.1629 199.103 25.4123 200.973 25.4138H215.097V31.384H201.635C198.197 31.384 195.649 30.9574 193.99 30.1043C190.286 28.4522 187.633 25.7487 186.032 21.9939C185.248 20.0981 184.85 18.059 184.863 16.0011C184.863 11.4262 186.638 7.52115 190.188 4.28597C192.517 2.48364 194.622 1.41951 196.502 1.09359C197.463 0.796209 199.266 0.646766 201.911 0.645264ZM199.364 13.0566H215.093V18.9637H199.364V13.0566Z" fill="white"/>
<path d="M218.289 0.645264H237.632C241.052 0.645264 243.726 1.68986 245.654 3.77906C246.401 4.4467 247.012 5.25823 247.451 6.16715C248.167 7.55828 248.553 9.10162 248.579 10.673V11.5471C248.579 13.8 247.622 15.9966 245.71 18.1369C244.484 19.3384 243.37 20.1059 242.368 20.4393C244.902 23.1999 246.169 26.8466 246.169 31.3795H240.091V30.9109C240.091 27.5555 238.761 24.8896 236.101 22.913C234.582 21.8181 232.596 21.2707 230.142 21.2707H218.289V15.3388H238.007C240.166 15.3388 241.628 14.2513 242.395 12.0765C242.479 11.626 242.534 11.2655 242.563 10.9681C242.563 9.75904 242.068 8.66413 241.079 7.68336C240.316 7.03313 239.357 6.67183 238.363 6.66054C238.363 6.60421 238.071 6.57493 237.48 6.57493H218.28L218.289 0.645264Z" fill="white"/>
<path d="M261.279 0.66779H281.561V6.97594H261.09C259.49 6.97594 258.509 7.77873 258.146 9.38431V9.83489C258.146 10.7871 258.668 11.5831 259.712 12.223C260.032 12.3509 260.372 12.4159 260.714 12.4145H271.01C273.658 12.4145 275.454 12.6916 276.399 13.2458C278.74 14.3137 280.358 15.9418 281.254 18.1301C281.739 19.3871 281.994 20.7241 282.007 22.075C282.007 25.1449 280.6 27.732 277.787 29.8362C276.894 30.4017 275.922 30.8263 274.905 31.0956C274.097 31.2804 272.753 31.3727 270.873 31.3727H251.739L251.717 25.0646H272.272C273.999 25.0646 275.103 24.1972 275.582 22.4625L275.624 21.888C275.624 20.6639 275.036 19.7252 273.859 19.0718C273.358 18.8269 272.805 18.7102 272.25 18.7316H260.699C257.677 18.7316 255.157 17.3799 253.138 14.6764C252.295 13.3158 251.837 11.7441 251.814 10.1345V9.30095C251.814 6.14687 253.318 3.65215 256.327 1.81678C257.567 1.04928 259.218 0.666288 261.279 0.66779Z" fill="white"/>
</g>
<defs>
<clipPath id="clip0_89_90">
<rect width="282" height="30.75" fill="white" transform="translate(0 0.625)"/>
</clipPath>
</defs>
</svg>
