<svg width="424" height="25" viewBox="0 0 424 25" fill="none" xmlns="http://www.w3.org/2000/svg">
<path d="M14.7471 10.16V11.283C14.7471 12.6177 14.5802 13.8139 14.2466 14.8719C13.9129 15.9298 13.4328 16.8291 12.8062 17.5696C12.1795 18.3102 11.4268 18.8758 10.5479 19.2664C9.67708 19.657 8.70052 19.8524 7.61816 19.8524C6.56836 19.8524 5.604 19.657 4.7251 19.2664C3.85433 18.8758 3.09749 18.3102 2.45459 17.5696C1.81982 16.8291 1.32747 15.9298 0.977539 14.8719C0.627604 13.8139 0.452637 12.6177 0.452637 11.283V10.16C0.452637 8.82534 0.623535 7.63312 0.965332 6.58331C1.31527 5.52537 1.80762 4.62612 2.44238 3.88556C3.07715 3.13686 3.82992 2.5672 4.70068 2.17657C5.57959 1.78595 6.54395 1.59064 7.59375 1.59064C8.67611 1.59064 9.65267 1.78595 10.5234 2.17657C11.4023 2.5672 12.1551 3.13686 12.7817 3.88556C13.4165 4.62612 13.9007 5.52537 14.2344 6.58331C14.5762 7.63312 14.7471 8.82534 14.7471 10.16ZM12.4155 11.283V10.1356C12.4155 9.07762 12.3057 8.14174 12.0859 7.32794C11.8743 6.51414 11.561 5.83055 11.146 5.27716C10.731 4.72378 10.2223 4.30467 9.62012 4.01984C9.02604 3.73501 8.35059 3.59259 7.59375 3.59259C6.86133 3.59259 6.19808 3.73501 5.604 4.01984C5.01807 4.30467 4.51351 4.72378 4.09033 5.27716C3.67529 5.83055 3.35384 6.51414 3.12598 7.32794C2.89811 8.14174 2.78418 9.07762 2.78418 10.1356V11.283C2.78418 12.3491 2.89811 13.2931 3.12598 14.1151C3.35384 14.9289 3.67936 15.6165 4.10254 16.178C4.53385 16.7314 5.04248 17.1505 5.62842 17.4354C6.22249 17.7202 6.88574 17.8626 7.61816 17.8626C8.38314 17.8626 9.06266 17.7202 9.65674 17.4354C10.2508 17.1505 10.7513 16.7314 11.1582 16.178C11.5732 15.6165 11.8866 14.9289 12.0981 14.1151C12.3097 13.2931 12.4155 12.3491 12.4155 11.283ZM26.3804 9.02472V19.6082H24.1099V6.40021H26.2583L26.3804 9.02472ZM25.9165 12.5037L24.8667 12.4671C24.8748 11.5638 24.9928 10.7296 25.2207 9.96466C25.4486 9.19155 25.7863 8.52016 26.2339 7.9505C26.6815 7.38084 27.2389 6.94139 27.9062 6.63214C28.5736 6.31476 29.3467 6.15607 30.2256 6.15607C30.8441 6.15607 31.4137 6.24559 31.9346 6.42462C32.4554 6.59552 32.9071 6.86814 33.2896 7.24249C33.672 7.61684 33.9691 8.09698 34.1807 8.68292C34.3923 9.26886 34.498 9.97687 34.498 10.8069V19.6082H32.2397V10.9168C32.2397 10.2251 32.1217 9.67169 31.8857 9.25665C31.6579 8.84161 31.3324 8.54051 30.9092 8.35333C30.486 8.15802 29.9896 8.06036 29.4199 8.06036C28.7526 8.06036 28.1951 8.17837 27.7476 8.41437C27.3 8.65037 26.9419 8.97589 26.6733 9.39093C26.4048 9.80597 26.2095 10.282 26.0874 10.8192C25.9735 11.3481 25.9165 11.9096 25.9165 12.5037ZM34.4736 11.2586L32.96 11.7225C32.9681 10.9982 33.0861 10.3024 33.314 9.63507C33.55 8.96775 33.8877 8.37368 34.3271 7.85284C34.7747 7.33201 35.3241 6.92104 35.9751 6.61993C36.6261 6.31069 37.3708 6.15607 38.209 6.15607C38.917 6.15607 39.5436 6.24965 40.0889 6.43683C40.6423 6.624 41.1061 6.9129 41.4805 7.30353C41.863 7.68601 42.1519 8.17837 42.3472 8.78058C42.5425 9.38279 42.6401 10.0989 42.6401 10.929V19.6082H40.3696V10.9046C40.3696 10.164 40.2516 9.59031 40.0156 9.18341C39.7878 8.76837 39.4622 8.47947 39.0391 8.31671C38.624 8.14581 38.1276 8.06036 37.5498 8.06036C37.0534 8.06036 36.6139 8.14581 36.2314 8.31671C35.849 8.48761 35.5275 8.72361 35.2671 9.02472C35.0067 9.31769 34.8073 9.65542 34.6689 10.0379C34.5387 10.4204 34.4736 10.8273 34.4736 11.2586ZM53.8462 17.3499V10.5506C53.8462 10.0298 53.7404 9.5781 53.5288 9.19562C53.3254 8.80499 53.0161 8.50389 52.6011 8.2923C52.186 8.08071 51.6733 7.97491 51.063 7.97491C50.4933 7.97491 49.9928 8.07257 49.5615 8.26788C49.1383 8.4632 48.8047 8.71954 48.5605 9.03693C48.3245 9.35431 48.2065 9.69611 48.2065 10.0623H45.9482C45.9482 9.59031 46.0703 9.12238 46.3145 8.65851C46.5586 8.19464 46.9085 7.77553 47.3643 7.40118C47.8281 7.0187 48.3815 6.71759 49.0244 6.49786C49.6755 6.27 50.3997 6.15607 51.1973 6.15607C52.1576 6.15607 53.0039 6.31883 53.7363 6.64435C54.4769 6.96987 55.0547 7.46222 55.4697 8.1214C55.8929 8.77244 56.1045 9.59031 56.1045 10.575V16.7274C56.1045 17.1668 56.1411 17.6347 56.2144 18.1312C56.2957 18.6276 56.4137 19.0548 56.5684 19.4129V19.6082H54.2124C54.0985 19.3478 54.009 19.0019 53.9438 18.5706C53.8787 18.1312 53.8462 17.7243 53.8462 17.3499ZM54.2368 11.6004L54.2612 13.1873H51.9785C51.3356 13.1873 50.7619 13.2402 50.2573 13.346C49.7528 13.4437 49.3296 13.5942 48.9878 13.7977C48.646 14.0011 48.3856 14.2575 48.2065 14.5667C48.0275 14.8678 47.938 15.2218 47.938 15.6287C47.938 16.0438 48.0316 16.4222 48.2188 16.764C48.4059 17.1058 48.6867 17.3784 49.061 17.5818C49.4435 17.7772 49.9115 17.8748 50.4648 17.8748C51.1566 17.8748 51.7669 17.7283 52.2959 17.4354C52.8249 17.1424 53.244 16.7843 53.5532 16.3611C53.8706 15.938 54.0415 15.527 54.0659 15.1282L55.0303 16.2147C54.9733 16.5565 54.8187 16.9349 54.5664 17.3499C54.3141 17.765 53.9764 18.1637 53.5532 18.5462C53.1382 18.9206 52.6418 19.2339 52.064 19.4861C51.4943 19.7303 50.8514 19.8524 50.1353 19.8524C49.2401 19.8524 48.4548 19.6774 47.7793 19.3275C47.112 18.9775 46.5911 18.5096 46.2168 17.9236C45.8506 17.3296 45.6675 16.6663 45.6675 15.9339C45.6675 15.2259 45.8058 14.6033 46.0825 14.0662C46.3592 13.521 46.758 13.0693 47.2788 12.7112C47.7996 12.345 48.4263 12.0683 49.1587 11.8812C49.8911 11.694 50.709 11.6004 51.6123 11.6004H54.2368ZM62.1104 6.40021V19.6082H59.8398V6.40021H62.1104ZM59.6689 2.89679C59.6689 2.53058 59.7788 2.22133 59.9985 1.96906C60.2264 1.71678 60.5601 1.59064 60.9995 1.59064C61.4308 1.59064 61.7604 1.71678 61.9883 1.96906C62.2243 2.22133 62.3423 2.53058 62.3423 2.89679C62.3423 3.24672 62.2243 3.54783 61.9883 3.80011C61.7604 4.04425 61.4308 4.16632 60.9995 4.16632C60.5601 4.16632 60.2264 4.04425 59.9985 3.80011C59.7788 3.54783 59.6689 3.24672 59.6689 2.89679ZM65.1377 13.1507V12.8699C65.1377 11.9178 65.276 11.0348 65.5527 10.221C65.8294 9.39907 66.2282 8.68699 66.749 8.08478C67.2699 7.47443 67.9006 7.00242 68.6411 6.66876C69.3817 6.32697 70.2118 6.15607 71.1313 6.15607C72.0591 6.15607 72.8932 6.32697 73.6338 6.66876C74.3825 7.00242 75.0173 7.47443 75.5381 8.08478C76.0671 8.68699 76.4699 9.39907 76.7466 10.221C77.0233 11.0348 77.1616 11.9178 77.1616 12.8699V13.1507C77.1616 14.1028 77.0233 14.9858 76.7466 15.7996C76.4699 16.6134 76.0671 17.3255 75.5381 17.9359C75.0173 18.5381 74.3866 19.0101 73.646 19.3519C72.9136 19.6855 72.0835 19.8524 71.1558 19.8524C70.228 19.8524 69.3939 19.6855 68.6533 19.3519C67.9128 19.0101 67.278 18.5381 66.749 17.9359C66.2282 17.3255 65.8294 16.6134 65.5527 15.7996C65.276 14.9858 65.1377 14.1028 65.1377 13.1507ZM67.396 12.8699V13.1507C67.396 13.8099 67.4733 14.4324 67.6279 15.0184C67.7826 15.5962 68.0145 16.1089 68.3237 16.5565C68.6411 17.004 69.0358 17.3581 69.5078 17.6185C69.9798 17.8707 70.5291 17.9969 71.1558 17.9969C71.7743 17.9969 72.3154 17.8707 72.7793 17.6185C73.2513 17.3581 73.6419 17.004 73.9512 16.5565C74.2604 16.1089 74.4924 15.5962 74.647 15.0184C74.8097 14.4324 74.8911 13.8099 74.8911 13.1507V12.8699C74.8911 12.2189 74.8097 11.6045 74.647 11.0267C74.4924 10.4407 74.2563 9.92397 73.939 9.47638C73.6297 9.02065 73.2391 8.66258 72.7671 8.40216C72.3032 8.14174 71.758 8.01154 71.1313 8.01154C70.5129 8.01154 69.9676 8.14174 69.4956 8.40216C69.0317 8.66258 68.6411 9.02065 68.3237 9.47638C68.0145 9.92397 67.7826 10.4407 67.6279 11.0267C67.4733 11.6045 67.396 12.2189 67.396 12.8699ZM82.252 8.4754V19.6082H79.9937V6.40021H82.1909L82.252 8.4754ZM86.3779 6.32697L86.3657 8.42657C86.1785 8.38588 85.9995 8.36147 85.8286 8.35333C85.6659 8.33706 85.4787 8.32892 85.2671 8.32892C84.7463 8.32892 84.2865 8.4103 83.8877 8.57306C83.4889 8.73582 83.1512 8.96368 82.8745 9.25665C82.5978 9.54962 82.3781 9.89956 82.2153 10.3065C82.0607 10.7052 81.959 11.1447 81.9102 11.6248L81.2754 11.991C81.2754 11.1935 81.3527 10.4448 81.5073 9.74493C81.6701 9.04506 81.9183 8.42657 82.252 7.88947C82.5856 7.34422 83.0088 6.92104 83.5215 6.61993C84.0423 6.31069 84.6608 6.15607 85.377 6.15607C85.5397 6.15607 85.7269 6.17641 85.9385 6.2171C86.1501 6.24965 86.2965 6.28628 86.3779 6.32697ZM96.9248 8.93927V24.6863H94.6543V6.40021H96.7295L96.9248 8.93927ZM105.824 12.8943V13.1507C105.824 14.111 105.71 15.0021 105.482 15.824C105.254 16.6378 104.92 17.3458 104.481 17.9481C104.05 18.5503 103.517 19.0182 102.882 19.3519C102.247 19.6855 101.519 19.8524 100.697 19.8524C99.8586 19.8524 99.118 19.714 98.4751 19.4373C97.8322 19.1606 97.2869 18.7578 96.8394 18.2288C96.3918 17.6998 96.0337 17.0651 95.7651 16.3245C95.5047 15.584 95.3257 14.7498 95.228 13.8221V12.4549C95.3257 11.4783 95.5088 10.6035 95.7773 9.83038C96.0459 9.05727 96.3999 8.39809 96.8394 7.85284C97.2869 7.29946 97.8281 6.88035 98.4629 6.59552C99.0977 6.30255 99.8301 6.15607 100.66 6.15607C101.49 6.15607 102.227 6.31883 102.87 6.64435C103.513 6.96173 104.054 7.41746 104.493 8.01154C104.933 8.60561 105.262 9.31769 105.482 10.1478C105.71 10.9697 105.824 11.8852 105.824 12.8943ZM103.553 13.1507V12.8943C103.553 12.2352 103.484 11.6167 103.346 11.0389C103.207 10.4529 102.992 9.94025 102.699 9.50079C102.414 9.0532 102.048 8.70327 101.6 8.45099C101.153 8.19057 100.619 8.06036 100.001 8.06036C99.4313 8.06036 98.9349 8.15802 98.5117 8.35333C98.0967 8.54865 97.7427 8.81313 97.4497 9.14679C97.1567 9.47231 96.9167 9.84666 96.7295 10.2698C96.5505 10.6849 96.4162 11.1162 96.3267 11.5638V14.7254C96.4894 15.2951 96.7173 15.8322 97.0103 16.3367C97.3032 16.8332 97.6938 17.236 98.1821 17.5452C98.6704 17.8463 99.2848 17.9969 100.025 17.9969C100.636 17.9969 101.161 17.8707 101.6 17.6185C102.048 17.3581 102.414 17.004 102.699 16.5565C102.992 16.1089 103.207 15.5962 103.346 15.0184C103.484 14.4324 103.553 13.8099 103.553 13.1507ZM108.106 13.1507V12.8699C108.106 11.9178 108.245 11.0348 108.521 10.221C108.798 9.39907 109.197 8.68699 109.718 8.08478C110.239 7.47443 110.869 7.00242 111.61 6.66876C112.35 6.32697 113.181 6.15607 114.1 6.15607C115.028 6.15607 115.862 6.32697 116.603 6.66876C117.351 7.00242 117.986 7.47443 118.507 8.08478C119.036 8.68699 119.439 9.39907 119.715 10.221C119.992 11.0348 120.13 11.9178 120.13 12.8699V13.1507C120.13 14.1028 119.992 14.9858 119.715 15.7996C119.439 16.6134 119.036 17.3255 118.507 17.9359C117.986 18.5381 117.355 19.0101 116.615 19.3519C115.882 19.6855 115.052 19.8524 114.125 19.8524C113.197 19.8524 112.363 19.6855 111.622 19.3519C110.882 19.0101 110.247 18.5381 109.718 17.9359C109.197 17.3255 108.798 16.6134 108.521 15.7996C108.245 14.9858 108.106 14.1028 108.106 13.1507ZM110.365 12.8699V13.1507C110.365 13.8099 110.442 14.4324 110.597 15.0184C110.751 15.5962 110.983 16.1089 111.292 16.5565C111.61 17.004 112.005 17.3581 112.477 17.6185C112.949 17.8707 113.498 17.9969 114.125 17.9969C114.743 17.9969 115.284 17.8707 115.748 17.6185C116.22 17.3581 116.611 17.004 116.92 16.5565C117.229 16.1089 117.461 15.5962 117.616 15.0184C117.778 14.4324 117.86 13.8099 117.86 13.1507V12.8699C117.86 12.2189 117.778 11.6045 117.616 11.0267C117.461 10.4407 117.225 9.92397 116.908 9.47638C116.598 9.02065 116.208 8.66258 115.736 8.40216C115.272 8.14174 114.727 8.01154 114.1 8.01154C113.482 8.01154 112.936 8.14174 112.464 8.40216C112 8.66258 111.61 9.02065 111.292 9.47638C110.983 9.92397 110.751 10.4407 110.597 11.0267C110.442 11.6045 110.365 12.2189 110.365 12.8699ZM125.221 8.4754V19.6082H122.962V6.40021H125.16L125.221 8.4754ZM129.347 6.32697L129.334 8.42657C129.147 8.38588 128.968 8.36147 128.797 8.35333C128.635 8.33706 128.447 8.32892 128.236 8.32892C127.715 8.32892 127.255 8.4103 126.856 8.57306C126.458 8.73582 126.12 8.96368 125.843 9.25665C125.567 9.54962 125.347 9.89956 125.184 10.3065C125.029 10.7052 124.928 11.1447 124.879 11.6248L124.244 11.991C124.244 11.1935 124.321 10.4448 124.476 9.74493C124.639 9.04506 124.887 8.42657 125.221 7.88947C125.554 7.34422 125.978 6.92104 126.49 6.61993C127.011 6.31069 127.63 6.15607 128.346 6.15607C128.508 6.15607 128.696 6.17641 128.907 6.2171C129.119 6.24965 129.265 6.28628 129.347 6.32697ZM137.574 6.40021V8.13361H130.433V6.40021H137.574ZM132.85 3.18976H135.108V16.3367C135.108 16.7843 135.178 17.122 135.316 17.3499C135.454 17.5778 135.633 17.7283 135.853 17.8016C136.073 17.8748 136.309 17.9114 136.561 17.9114C136.748 17.9114 136.944 17.8952 137.147 17.8626C137.359 17.8219 137.517 17.7894 137.623 17.765L137.635 19.6082C137.456 19.6652 137.22 19.7181 136.927 19.7669C136.642 19.8239 136.297 19.8524 135.89 19.8524C135.336 19.8524 134.828 19.7425 134.364 19.5228C133.9 19.303 133.53 18.9368 133.253 18.4241C132.984 17.9033 132.85 17.2034 132.85 16.3245V3.18976ZM148.011 17.3499V10.5506C148.011 10.0298 147.905 9.5781 147.694 9.19562C147.49 8.80499 147.181 8.50389 146.766 8.2923C146.351 8.08071 145.838 7.97491 145.228 7.97491C144.658 7.97491 144.158 8.07257 143.727 8.26788C143.303 8.4632 142.97 8.71954 142.726 9.03693C142.49 9.35431 142.372 9.69611 142.372 10.0623H140.113C140.113 9.59031 140.235 9.12238 140.479 8.65851C140.724 8.19464 141.074 7.77553 141.529 7.40118C141.993 7.0187 142.547 6.71759 143.189 6.49786C143.84 6.27 144.565 6.15607 145.362 6.15607C146.323 6.15607 147.169 6.31883 147.901 6.64435C148.642 6.96987 149.22 7.46222 149.635 8.1214C150.058 8.77244 150.27 9.59031 150.27 10.575V16.7274C150.27 17.1668 150.306 17.6347 150.379 18.1312C150.461 18.6276 150.579 19.0548 150.733 19.4129V19.6082H148.377C148.264 19.3478 148.174 19.0019 148.109 18.5706C148.044 18.1312 148.011 17.7243 148.011 17.3499ZM148.402 11.6004L148.426 13.1873H146.144C145.501 13.1873 144.927 13.2402 144.422 13.346C143.918 13.4437 143.495 13.5942 143.153 13.7977C142.811 14.0011 142.551 14.2575 142.372 14.5667C142.193 14.8678 142.103 15.2218 142.103 15.6287C142.103 16.0438 142.197 16.4222 142.384 16.764C142.571 17.1058 142.852 17.3784 143.226 17.5818C143.609 17.7772 144.076 17.8748 144.63 17.8748C145.322 17.8748 145.932 17.7283 146.461 17.4354C146.99 17.1424 147.409 16.7843 147.718 16.3611C148.036 15.938 148.207 15.527 148.231 15.1282L149.195 16.2147C149.138 16.5565 148.984 16.9349 148.731 17.3499C148.479 17.765 148.141 18.1637 147.718 18.5462C147.303 18.9206 146.807 19.2339 146.229 19.4861C145.659 19.7303 145.016 19.8524 144.3 19.8524C143.405 19.8524 142.62 19.6774 141.944 19.3275C141.277 18.9775 140.756 18.5096 140.382 17.9236C140.016 17.3296 139.833 16.6663 139.833 15.9339C139.833 15.2259 139.971 14.6033 140.248 14.0662C140.524 13.521 140.923 13.0693 141.444 12.7112C141.965 12.345 142.591 12.0683 143.324 11.8812C144.056 11.694 144.874 11.6004 145.777 11.6004H148.402ZM156.275 0.858215V19.6082H154.005V0.858215H156.275ZM174.427 17.0447V0.858215H176.698V19.6082H174.623L174.427 17.0447ZM165.541 13.1507V12.8943C165.541 11.8852 165.663 10.9697 165.907 10.1478C166.159 9.31769 166.513 8.60561 166.969 8.01154C167.433 7.41746 167.982 6.96173 168.617 6.64435C169.26 6.31883 169.976 6.15607 170.765 6.15607C171.595 6.15607 172.319 6.30255 172.938 6.59552C173.565 6.88035 174.094 7.29946 174.525 7.85284C174.964 8.39809 175.31 9.05727 175.562 9.83038C175.815 10.6035 175.99 11.4783 176.087 12.4549V13.5779C175.998 14.5464 175.823 15.4171 175.562 16.1902C175.31 16.9634 174.964 17.6225 174.525 18.1678C174.094 18.713 173.565 19.1321 172.938 19.4251C172.311 19.7099 171.579 19.8524 170.741 19.8524C169.968 19.8524 169.26 19.6855 168.617 19.3519C167.982 19.0182 167.433 18.5503 166.969 17.9481C166.513 17.3458 166.159 16.6378 165.907 15.824C165.663 15.0021 165.541 14.111 165.541 13.1507ZM167.811 12.8943V13.1507C167.811 13.8099 167.876 14.4284 168.006 15.0062C168.145 15.584 168.356 16.0926 168.641 16.532C168.926 16.9715 169.288 17.3174 169.728 17.5696C170.167 17.8138 170.692 17.9359 171.302 17.9359C172.051 17.9359 172.665 17.7772 173.146 17.4598C173.634 17.1424 174.024 16.7233 174.317 16.2025C174.61 15.6816 174.838 15.116 175.001 14.5057V11.5638C174.903 11.1162 174.761 10.6849 174.574 10.2698C174.395 9.84666 174.159 9.47231 173.866 9.14679C173.581 8.81313 173.227 8.54865 172.804 8.35333C172.389 8.15802 171.896 8.06036 171.327 8.06036C170.708 8.06036 170.175 8.19057 169.728 8.45099C169.288 8.70327 168.926 9.0532 168.641 9.50079C168.356 9.94025 168.145 10.4529 168.006 11.0389C167.876 11.6167 167.811 12.2352 167.811 12.8943ZM185.694 19.8524C184.775 19.8524 183.941 19.6977 183.192 19.3885C182.451 19.0711 181.812 18.6276 181.275 18.0579C180.746 17.4883 180.34 16.8128 180.055 16.0316C179.77 15.2503 179.627 14.3958 179.627 13.4681V12.9554C179.627 11.8812 179.786 10.9249 180.104 10.0867C180.421 9.24038 180.852 8.52423 181.397 7.93829C181.943 7.35236 182.561 6.90883 183.253 6.60773C183.945 6.30662 184.661 6.15607 185.401 6.15607C186.345 6.15607 187.159 6.31883 187.843 6.64435C188.535 6.96987 189.1 7.4256 189.54 8.01154C189.979 8.58934 190.305 9.27293 190.516 10.0623C190.728 10.8436 190.833 11.6981 190.833 12.6258V13.639H180.97V11.7957H188.575V11.6248C188.543 11.0389 188.421 10.4692 188.209 9.91583C188.006 9.36245 187.68 8.90672 187.232 8.54865C186.785 8.19057 186.174 8.01154 185.401 8.01154C184.889 8.01154 184.417 8.1214 183.985 8.34113C183.554 8.55271 183.184 8.8701 182.875 9.29327C182.565 9.71645 182.325 10.2332 182.154 10.8436C181.983 11.4539 181.898 12.1579 181.898 12.9554V13.4681C181.898 14.0947 181.983 14.6847 182.154 15.2381C182.333 15.7833 182.59 16.2635 182.923 16.6785C183.265 17.0936 183.676 17.4191 184.156 17.6551C184.645 17.8911 185.198 18.0091 185.816 18.0091C186.614 18.0091 187.289 17.8463 187.843 17.5208C188.396 17.1953 188.88 16.7599 189.295 16.2147L190.663 17.3011C190.378 17.7324 190.016 18.1434 189.576 18.534C189.137 18.9246 188.596 19.242 187.953 19.4861C187.318 19.7303 186.565 19.8524 185.694 19.8524ZM204.957 17.9969C205.494 17.9969 205.991 17.887 206.446 17.6673C206.902 17.4476 207.276 17.1465 207.569 16.764C207.862 16.3734 208.029 15.9298 208.07 15.4334H210.218C210.178 16.2147 209.913 16.943 209.425 17.6185C208.945 18.2858 208.314 18.827 207.533 19.242C206.751 19.6489 205.893 19.8524 204.957 19.8524C203.964 19.8524 203.097 19.6774 202.357 19.3275C201.625 18.9775 201.014 18.4974 200.526 17.887C200.046 17.2767 199.684 16.5768 199.439 15.7874C199.203 14.9899 199.085 14.1476 199.085 13.2606V12.7479C199.085 11.8608 199.203 11.0226 199.439 10.2332C199.684 9.43569 200.046 8.73175 200.526 8.1214C201.014 7.51105 201.625 7.0309 202.357 6.68097C203.097 6.33103 203.964 6.15607 204.957 6.15607C205.991 6.15607 206.894 6.36766 207.667 6.79083C208.44 7.20587 209.046 7.77553 209.486 8.49982C209.933 9.21596 210.178 10.0298 210.218 10.9412H208.07C208.029 10.396 207.875 9.90363 207.606 9.46417C207.346 9.02472 206.987 8.67478 206.532 8.41437C206.084 8.14581 205.559 8.01154 204.957 8.01154C204.265 8.01154 203.683 8.14988 203.211 8.42657C202.748 8.69513 202.377 9.06134 202.101 9.52521C201.832 9.98094 201.637 10.4896 201.515 11.0511C201.401 11.6045 201.344 12.1701 201.344 12.7479V13.2606C201.344 13.8384 201.401 14.408 201.515 14.9695C201.629 15.5311 201.82 16.0397 202.088 16.4954C202.365 16.9512 202.735 17.3174 203.199 17.5941C203.671 17.8626 204.257 17.9969 204.957 17.9969ZM220.545 17.3499V10.5506C220.545 10.0298 220.44 9.5781 220.228 9.19562C220.025 8.80499 219.715 8.50389 219.3 8.2923C218.885 8.08071 218.373 7.97491 217.762 7.97491C217.193 7.97491 216.692 8.07257 216.261 8.26788C215.838 8.4632 215.504 8.71954 215.26 9.03693C215.024 9.35431 214.906 9.69611 214.906 10.0623H212.647C212.647 9.59031 212.77 9.12238 213.014 8.65851C213.258 8.19464 213.608 7.77553 214.063 7.40118C214.527 7.0187 215.081 6.71759 215.724 6.49786C216.375 6.27 217.099 6.15607 217.896 6.15607C218.857 6.15607 219.703 6.31883 220.436 6.64435C221.176 6.96987 221.754 7.46222 222.169 8.1214C222.592 8.77244 222.804 9.59031 222.804 10.575V16.7274C222.804 17.1668 222.84 17.6347 222.914 18.1312C222.995 18.6276 223.113 19.0548 223.268 19.4129V19.6082H220.912C220.798 19.3478 220.708 19.0019 220.643 18.5706C220.578 18.1312 220.545 17.7243 220.545 17.3499ZM220.936 11.6004L220.96 13.1873H218.678C218.035 13.1873 217.461 13.2402 216.957 13.346C216.452 13.4437 216.029 13.5942 215.687 13.7977C215.345 14.0011 215.085 14.2575 214.906 14.5667C214.727 14.8678 214.637 15.2218 214.637 15.6287C214.637 16.0438 214.731 16.4222 214.918 16.764C215.105 17.1058 215.386 17.3784 215.76 17.5818C216.143 17.7772 216.611 17.8748 217.164 17.8748C217.856 17.8748 218.466 17.7283 218.995 17.4354C219.524 17.1424 219.943 16.7843 220.252 16.3611C220.57 15.938 220.741 15.527 220.765 15.1282L221.729 16.2147C221.673 16.5565 221.518 16.9349 221.266 17.3499C221.013 17.765 220.676 18.1637 220.252 18.5462C219.837 18.9206 219.341 19.2339 218.763 19.4861C218.194 19.7303 217.551 19.8524 216.834 19.8524C215.939 19.8524 215.154 19.6774 214.479 19.3275C213.811 18.9775 213.29 18.5096 212.916 17.9236C212.55 17.3296 212.367 16.6663 212.367 15.9339C212.367 15.2259 212.505 14.6033 212.782 14.0662C213.058 13.521 213.457 13.0693 213.978 12.7112C214.499 12.345 215.125 12.0683 215.858 11.8812C216.59 11.694 217.408 11.6004 218.312 11.6004H220.936ZM228.602 9.02472V19.6082H226.332V6.40021H228.48L228.602 9.02472ZM228.138 12.5037L227.088 12.4671C227.097 11.5638 227.215 10.7296 227.442 9.96466C227.67 9.19155 228.008 8.52016 228.456 7.9505C228.903 7.38084 229.461 6.94139 230.128 6.63214C230.795 6.31476 231.568 6.15607 232.447 6.15607C233.066 6.15607 233.635 6.24559 234.156 6.42462C234.677 6.59552 235.129 6.86814 235.511 7.24249C235.894 7.61684 236.191 8.09698 236.402 8.68292C236.614 9.26886 236.72 9.97687 236.72 10.8069V19.6082H234.461V10.9168C234.461 10.2251 234.343 9.67169 234.107 9.25665C233.88 8.84161 233.554 8.54051 233.131 8.35333C232.708 8.15802 232.211 8.06036 231.642 8.06036C230.974 8.06036 230.417 8.17837 229.969 8.41437C229.522 8.65037 229.164 8.97589 228.895 9.39093C228.626 9.80597 228.431 10.282 228.309 10.8192C228.195 11.3481 228.138 11.9096 228.138 12.5037ZM236.695 11.2586L235.182 11.7225C235.19 10.9982 235.308 10.3024 235.536 9.63507C235.772 8.96775 236.109 8.37368 236.549 7.85284C236.996 7.33201 237.546 6.92104 238.197 6.61993C238.848 6.31069 239.592 6.15607 240.431 6.15607C241.139 6.15607 241.765 6.24965 242.311 6.43683C242.864 6.624 243.328 6.9129 243.702 7.30353C244.085 7.68601 244.374 8.17837 244.569 8.78058C244.764 9.38279 244.862 10.0989 244.862 10.929V19.6082H242.591V10.9046C242.591 10.164 242.473 9.59031 242.237 9.18341C242.009 8.76837 241.684 8.47947 241.261 8.31671C240.846 8.14581 240.349 8.06036 239.771 8.06036C239.275 8.06036 238.836 8.14581 238.453 8.31671C238.071 8.48761 237.749 8.72361 237.489 9.02472C237.228 9.31769 237.029 9.65542 236.891 10.0379C236.76 10.4204 236.695 10.8273 236.695 11.2586ZM250.538 8.93927V24.6863H248.268V6.40021H250.343L250.538 8.93927ZM259.437 12.8943V13.1507C259.437 14.111 259.323 15.0021 259.095 15.824C258.867 16.6378 258.534 17.3458 258.094 17.9481C257.663 18.5503 257.13 19.0182 256.495 19.3519C255.86 19.6855 255.132 19.8524 254.31 19.8524C253.472 19.8524 252.731 19.714 252.088 19.4373C251.445 19.1606 250.9 18.7578 250.453 18.2288C250.005 17.6998 249.647 17.0651 249.378 16.3245C249.118 15.584 248.939 14.7498 248.841 13.8221V12.4549C248.939 11.4783 249.122 10.6035 249.391 9.83038C249.659 9.05727 250.013 8.39809 250.453 7.85284C250.9 7.29946 251.441 6.88035 252.076 6.59552C252.711 6.30255 253.443 6.15607 254.273 6.15607C255.104 6.15607 255.84 6.31883 256.483 6.64435C257.126 6.96173 257.667 7.41746 258.106 8.01154C258.546 8.60561 258.875 9.31769 259.095 10.1478C259.323 10.9697 259.437 11.8852 259.437 12.8943ZM257.167 13.1507V12.8943C257.167 12.2352 257.097 11.6167 256.959 11.0389C256.821 10.4529 256.605 9.94025 256.312 9.50079C256.027 9.0532 255.661 8.70327 255.213 8.45099C254.766 8.19057 254.233 8.06036 253.614 8.06036C253.045 8.06036 252.548 8.15802 252.125 8.35333C251.71 8.54865 251.356 8.81313 251.063 9.14679C250.77 9.47231 250.53 9.84666 250.343 10.2698C250.164 10.6849 250.029 11.1162 249.94 11.5638V14.7254C250.103 15.2951 250.331 15.8322 250.624 16.3367C250.917 16.8332 251.307 17.236 251.795 17.5452C252.284 17.8463 252.898 17.9969 253.639 17.9969C254.249 17.9969 254.774 17.8707 255.213 17.6185C255.661 17.3581 256.027 17.004 256.312 16.5565C256.605 16.1089 256.821 15.5962 256.959 15.0184C257.097 14.4324 257.167 13.8099 257.167 13.1507ZM267.799 19.8524C266.879 19.8524 266.045 19.6977 265.296 19.3885C264.556 19.0711 263.917 18.6276 263.38 18.0579C262.851 17.4883 262.444 16.8128 262.159 16.0316C261.874 15.2503 261.732 14.3958 261.732 13.4681V12.9554C261.732 11.8812 261.891 10.9249 262.208 10.0867C262.525 9.24038 262.957 8.52423 263.502 7.93829C264.047 7.35236 264.666 6.90883 265.357 6.60773C266.049 6.30662 266.765 6.15607 267.506 6.15607C268.45 6.15607 269.264 6.31883 269.947 6.64435C270.639 6.96987 271.205 7.4256 271.644 8.01154C272.083 8.58934 272.409 9.27293 272.621 10.0623C272.832 10.8436 272.938 11.6981 272.938 12.6258V13.639H263.075V11.7957H270.68V11.6248C270.647 11.0389 270.525 10.4692 270.313 9.91583C270.11 9.36245 269.785 8.90672 269.337 8.54865C268.889 8.19057 268.279 8.01154 267.506 8.01154C266.993 8.01154 266.521 8.1214 266.09 8.34113C265.659 8.55271 265.288 8.8701 264.979 9.29327C264.67 9.71645 264.43 10.2332 264.259 10.8436C264.088 11.4539 264.002 12.1579 264.002 12.9554V13.4681C264.002 14.0947 264.088 14.6847 264.259 15.2381C264.438 15.7833 264.694 16.2635 265.028 16.6785C265.37 17.0936 265.781 17.4191 266.261 17.6551C266.749 17.8911 267.302 18.0091 267.921 18.0091C268.718 18.0091 269.394 17.8463 269.947 17.5208C270.501 17.1953 270.985 16.7599 271.4 16.2147L272.767 17.3011C272.482 17.7324 272.12 18.1434 271.681 18.534C271.241 18.9246 270.7 19.242 270.057 19.4861C269.422 19.7303 268.67 19.8524 267.799 19.8524ZM274.977 13.1507V12.8699C274.977 11.9178 275.115 11.0348 275.392 10.221C275.668 9.39907 276.067 8.68699 276.588 8.08478C277.109 7.47443 277.739 7.00242 278.48 6.66876C279.221 6.32697 280.051 6.15607 280.97 6.15607C281.898 6.15607 282.732 6.32697 283.473 6.66876C284.221 7.00242 284.856 7.47443 285.377 8.08478C285.906 8.68699 286.309 9.39907 286.585 10.221C286.862 11.0348 287 11.9178 287 12.8699V13.1507C287 14.1028 286.862 14.9858 286.585 15.7996C286.309 16.6134 285.906 17.3255 285.377 17.9359C284.856 18.5381 284.225 19.0101 283.485 19.3519C282.752 19.6855 281.922 19.8524 280.995 19.8524C280.067 19.8524 279.233 19.6855 278.492 19.3519C277.752 19.0101 277.117 18.5381 276.588 17.9359C276.067 17.3255 275.668 16.6134 275.392 15.7996C275.115 14.9858 274.977 14.1028 274.977 13.1507ZM277.235 12.8699V13.1507C277.235 13.8099 277.312 14.4324 277.467 15.0184C277.621 15.5962 277.853 16.1089 278.163 16.5565C278.48 17.004 278.875 17.3581 279.347 17.6185C279.819 17.8707 280.368 17.9969 280.995 17.9969C281.613 17.9969 282.154 17.8707 282.618 17.6185C283.09 17.3581 283.481 17.004 283.79 16.5565C284.099 16.1089 284.331 15.5962 284.486 15.0184C284.649 14.4324 284.73 13.8099 284.73 13.1507V12.8699C284.73 12.2189 284.649 11.6045 284.486 11.0267C284.331 10.4407 284.095 9.92397 283.778 9.47638C283.469 9.02065 283.078 8.66258 282.606 8.40216C282.142 8.14174 281.597 8.01154 280.97 8.01154C280.352 8.01154 279.806 8.14174 279.334 8.40216C278.871 8.66258 278.48 9.02065 278.163 9.47638C277.853 9.92397 277.621 10.4407 277.467 11.0267C277.312 11.6045 277.235 12.2189 277.235 12.8699ZM292.091 9.22003V19.6082H289.833V6.40021H291.969L292.091 9.22003ZM291.554 12.5037L290.614 12.4671C290.622 11.5638 290.756 10.7296 291.017 9.96466C291.277 9.19155 291.643 8.52016 292.115 7.9505C292.587 7.38084 293.149 6.94139 293.8 6.63214C294.459 6.31476 295.187 6.15607 295.985 6.15607C296.636 6.15607 297.222 6.24559 297.743 6.42462C298.264 6.59552 298.707 6.87221 299.073 7.2547C299.448 7.63719 299.732 8.13361 299.928 8.74396C300.123 9.34617 300.221 10.0827 300.221 10.9534V19.6082H297.95V10.929C297.95 10.2373 297.848 9.6839 297.645 9.26886C297.442 8.84568 297.145 8.54051 296.754 8.35333C296.363 8.15802 295.883 8.06036 295.313 8.06036C294.752 8.06036 294.239 8.17837 293.775 8.41437C293.32 8.65037 292.925 8.97589 292.591 9.39093C292.266 9.80597 292.009 10.282 291.822 10.8192C291.643 11.3481 291.554 11.9096 291.554 12.5037ZM311.439 17.3499V10.5506C311.439 10.0298 311.333 9.5781 311.122 9.19562C310.918 8.80499 310.609 8.50389 310.194 8.2923C309.779 8.08071 309.266 7.97491 308.656 7.97491C308.086 7.97491 307.586 8.07257 307.154 8.26788C306.731 8.4632 306.397 8.71954 306.153 9.03693C305.917 9.35431 305.799 9.69611 305.799 10.0623H303.541C303.541 9.59031 303.663 9.12238 303.907 8.65851C304.151 8.19464 304.501 7.77553 304.957 7.40118C305.421 7.0187 305.974 6.71759 306.617 6.49786C307.268 6.27 307.993 6.15607 308.79 6.15607C309.75 6.15607 310.597 6.31883 311.329 6.64435C312.07 6.96987 312.647 7.46222 313.062 8.1214C313.486 8.77244 313.697 9.59031 313.697 10.575V16.7274C313.697 17.1668 313.734 17.6347 313.807 18.1312C313.889 18.6276 314.007 19.0548 314.161 19.4129V19.6082H311.805C311.691 19.3478 311.602 19.0019 311.537 18.5706C311.472 18.1312 311.439 17.7243 311.439 17.3499ZM311.83 11.6004L311.854 13.1873H309.571C308.928 13.1873 308.355 13.2402 307.85 13.346C307.346 13.4437 306.922 13.5942 306.581 13.7977C306.239 14.0011 305.978 14.2575 305.799 14.5667C305.62 14.8678 305.531 15.2218 305.531 15.6287C305.531 16.0438 305.624 16.4222 305.812 16.764C305.999 17.1058 306.279 17.3784 306.654 17.5818C307.036 17.7772 307.504 17.8748 308.058 17.8748C308.749 17.8748 309.36 17.7283 309.889 17.4354C310.418 17.1424 310.837 16.7843 311.146 16.3611C311.463 15.938 311.634 15.527 311.659 15.1282L312.623 16.2147C312.566 16.5565 312.411 16.9349 312.159 17.3499C311.907 17.765 311.569 18.1637 311.146 18.5462C310.731 18.9206 310.235 19.2339 309.657 19.4861C309.087 19.7303 308.444 19.8524 307.728 19.8524C306.833 19.8524 306.048 19.6774 305.372 19.3275C304.705 18.9775 304.184 18.5096 303.81 17.9236C303.443 17.3296 303.26 16.6663 303.26 15.9339C303.26 15.2259 303.399 14.6033 303.675 14.0662C303.952 13.521 304.351 13.0693 304.872 12.7112C305.392 12.345 306.019 12.0683 306.751 11.8812C307.484 11.694 308.302 11.6004 309.205 11.6004H311.83ZM322.779 6.40021V8.13361H315.638V6.40021H322.779ZM318.055 3.18976H320.313V16.3367C320.313 16.7843 320.383 17.122 320.521 17.3499C320.659 17.5778 320.838 17.7283 321.058 17.8016C321.278 17.8748 321.514 17.9114 321.766 17.9114C321.953 17.9114 322.149 17.8952 322.352 17.8626C322.564 17.8219 322.722 17.7894 322.828 17.765L322.84 19.6082C322.661 19.6652 322.425 19.7181 322.132 19.7669C321.847 19.8239 321.502 19.8524 321.095 19.8524C320.541 19.8524 320.033 19.7425 319.569 19.5228C319.105 19.303 318.735 18.9368 318.458 18.4241C318.189 17.9033 318.055 17.2034 318.055 16.3245V3.18976ZM324.586 13.1507V12.8699C324.586 11.9178 324.724 11.0348 325.001 10.221C325.278 9.39907 325.676 8.68699 326.197 8.08478C326.718 7.47443 327.349 7.00242 328.089 6.66876C328.83 6.32697 329.66 6.15607 330.58 6.15607C331.507 6.15607 332.341 6.32697 333.082 6.66876C333.831 7.00242 334.465 7.47443 334.986 8.08478C335.515 8.68699 335.918 9.39907 336.195 10.221C336.472 11.0348 336.61 11.9178 336.61 12.8699V13.1507C336.61 14.1028 336.472 14.9858 336.195 15.7996C335.918 16.6134 335.515 17.3255 334.986 17.9359C334.465 18.5381 333.835 19.0101 333.094 19.3519C332.362 19.6855 331.532 19.8524 330.604 19.8524C329.676 19.8524 328.842 19.6855 328.102 19.3519C327.361 19.0101 326.726 18.5381 326.197 17.9359C325.676 17.3255 325.278 16.6134 325.001 15.7996C324.724 14.9858 324.586 14.1028 324.586 13.1507ZM326.844 12.8699V13.1507C326.844 13.8099 326.922 14.4324 327.076 15.0184C327.231 15.5962 327.463 16.1089 327.772 16.5565C328.089 17.004 328.484 17.3581 328.956 17.6185C329.428 17.8707 329.977 17.9969 330.604 17.9969C331.222 17.9969 331.764 17.8707 332.228 17.6185C332.7 17.3581 333.09 17.004 333.399 16.5565C333.709 16.1089 333.941 15.5962 334.095 15.0184C334.258 14.4324 334.339 13.8099 334.339 13.1507V12.8699C334.339 12.2189 334.258 11.6045 334.095 11.0267C333.941 10.4407 333.705 9.92397 333.387 9.47638C333.078 9.02065 332.687 8.66258 332.215 8.40216C331.751 8.14174 331.206 8.01154 330.58 8.01154C329.961 8.01154 329.416 8.14174 328.944 8.40216C328.48 8.66258 328.089 9.02065 327.772 9.47638C327.463 9.92397 327.231 10.4407 327.076 11.0267C326.922 11.6045 326.844 12.2189 326.844 12.8699ZM347.132 16.1048C347.132 15.7793 347.059 15.4782 346.913 15.2015C346.774 14.9166 346.485 14.6603 346.046 14.4324C345.615 14.1964 344.964 13.993 344.093 13.8221C343.36 13.6675 342.697 13.4844 342.103 13.2728C341.517 13.0612 341.017 12.8048 340.602 12.5037C340.195 12.2026 339.881 11.8486 339.662 11.4417C339.442 11.0348 339.332 10.5587 339.332 10.0135C339.332 9.49266 339.446 9.00031 339.674 8.53644C339.91 8.07257 340.239 7.6616 340.663 7.30353C341.094 6.94545 341.611 6.66469 342.213 6.46124C342.815 6.25779 343.486 6.15607 344.227 6.15607C345.285 6.15607 346.188 6.34324 346.937 6.71759C347.686 7.09194 348.259 7.59243 348.658 8.21906C349.057 8.83754 349.256 9.52521 349.256 10.282H346.998C346.998 9.91583 346.888 9.56183 346.668 9.22003C346.457 8.8701 346.144 8.5812 345.729 8.35333C345.322 8.12547 344.821 8.01154 344.227 8.01154C343.6 8.01154 343.092 8.10919 342.701 8.3045C342.319 8.49168 342.038 8.73175 341.859 9.02472C341.688 9.31769 341.603 9.62693 341.603 9.95245C341.603 10.1966 341.643 10.4163 341.725 10.6116C341.814 10.7988 341.969 10.9738 342.188 11.1365C342.408 11.2912 342.717 11.4376 343.116 11.576C343.515 11.7143 344.024 11.8527 344.642 11.991C345.724 12.2352 346.616 12.5281 347.315 12.8699C348.015 13.2117 348.536 13.6308 348.878 14.1273C349.22 14.6237 349.391 15.2259 349.391 15.9339C349.391 16.5117 349.269 17.0407 349.024 17.5208C348.788 18.001 348.443 18.416 347.987 18.7659C347.539 19.1077 347.002 19.3763 346.375 19.5716C345.757 19.7588 345.061 19.8524 344.288 19.8524C343.124 19.8524 342.14 19.6448 341.334 19.2298C340.528 18.8148 339.918 18.2776 339.503 17.6185C339.088 16.9593 338.88 16.2635 338.88 15.5311H341.151C341.183 16.1496 341.362 16.6419 341.688 17.0081C342.014 17.3662 342.412 17.6225 342.884 17.7772C343.356 17.9236 343.824 17.9969 344.288 17.9969C344.907 17.9969 345.423 17.9155 345.838 17.7527C346.262 17.59 346.583 17.3662 346.803 17.0814C347.022 16.7965 347.132 16.471 347.132 16.1048ZM357.96 13.1507V12.8699C357.96 11.9178 358.098 11.0348 358.375 10.221C358.652 9.39907 359.05 8.68699 359.571 8.08478C360.092 7.47443 360.723 7.00242 361.463 6.66876C362.204 6.32697 363.034 6.15607 363.954 6.15607C364.881 6.15607 365.715 6.32697 366.456 6.66876C367.205 7.00242 367.84 7.47443 368.36 8.08478C368.889 8.68699 369.292 9.39907 369.569 10.221C369.846 11.0348 369.984 11.9178 369.984 12.8699V13.1507C369.984 14.1028 369.846 14.9858 369.569 15.7996C369.292 16.6134 368.889 17.3255 368.36 17.9359C367.84 18.5381 367.209 19.0101 366.468 19.3519C365.736 19.6855 364.906 19.8524 363.978 19.8524C363.05 19.8524 362.216 19.6855 361.476 19.3519C360.735 19.0101 360.1 18.5381 359.571 17.9359C359.05 17.3255 358.652 16.6134 358.375 15.7996C358.098 14.9858 357.96 14.1028 357.96 13.1507ZM360.218 12.8699V13.1507C360.218 13.8099 360.296 14.4324 360.45 15.0184C360.605 15.5962 360.837 16.1089 361.146 16.5565C361.463 17.004 361.858 17.3581 362.33 17.6185C362.802 17.8707 363.351 17.9969 363.978 17.9969C364.597 17.9969 365.138 17.8707 365.602 17.6185C366.074 17.3581 366.464 17.004 366.773 16.5565C367.083 16.1089 367.315 15.5962 367.469 15.0184C367.632 14.4324 367.713 13.8099 367.713 13.1507V12.8699C367.713 12.2189 367.632 11.6045 367.469 11.0267C367.315 10.4407 367.079 9.92397 366.761 9.47638C366.452 9.02065 366.061 8.66258 365.589 8.40216C365.125 8.14174 364.58 8.01154 363.954 8.01154C363.335 8.01154 362.79 8.14174 362.318 8.40216C361.854 8.66258 361.463 9.02065 361.146 9.47638C360.837 9.92397 360.605 10.4407 360.45 11.0267C360.296 11.6045 360.218 12.2189 360.218 12.8699ZM375.074 9.22003V19.6082H372.816V6.40021H374.952L375.074 9.22003ZM374.537 12.5037L373.597 12.4671C373.605 11.5638 373.74 10.7296 374 9.96466C374.26 9.19155 374.627 8.52016 375.099 7.9505C375.571 7.38084 376.132 6.94139 376.783 6.63214C377.442 6.31476 378.171 6.15607 378.968 6.15607C379.619 6.15607 380.205 6.24559 380.726 6.42462C381.247 6.59552 381.69 6.87221 382.057 7.2547C382.431 7.63719 382.716 8.13361 382.911 8.74396C383.106 9.34617 383.204 10.0827 383.204 10.9534V19.6082H380.934V10.929C380.934 10.2373 380.832 9.6839 380.628 9.26886C380.425 8.84568 380.128 8.54051 379.737 8.35333C379.347 8.15802 378.867 8.06036 378.297 8.06036C377.735 8.06036 377.223 8.17837 376.759 8.41437C376.303 8.65037 375.908 8.97589 375.575 9.39093C375.249 9.80597 374.993 10.282 374.806 10.8192C374.627 11.3481 374.537 11.9096 374.537 12.5037ZM389.088 0.858215V19.6082H386.817V0.858215H389.088ZM395.167 6.40021V19.6082H392.896V6.40021H395.167ZM392.726 2.89679C392.726 2.53058 392.835 2.22133 393.055 1.96906C393.283 1.71678 393.617 1.59064 394.056 1.59064C394.487 1.59064 394.817 1.71678 395.045 1.96906C395.281 2.22133 395.399 2.53058 395.399 2.89679C395.399 3.24672 395.281 3.54783 395.045 3.80011C394.817 4.04425 394.487 4.16632 394.056 4.16632C393.617 4.16632 393.283 4.04425 393.055 3.80011C392.835 3.54783 392.726 3.24672 392.726 2.89679ZM401.051 9.22003V19.6082H398.792V6.40021H400.929L401.051 9.22003ZM400.514 12.5037L399.574 12.4671C399.582 11.5638 399.716 10.7296 399.977 9.96466C400.237 9.19155 400.603 8.52016 401.075 7.9505C401.547 7.38084 402.109 6.94139 402.76 6.63214C403.419 6.31476 404.147 6.15607 404.945 6.15607C405.596 6.15607 406.182 6.24559 406.703 6.42462C407.223 6.59552 407.667 6.87221 408.033 7.2547C408.408 7.63719 408.692 8.13361 408.888 8.74396C409.083 9.34617 409.181 10.0827 409.181 10.9534V19.6082H406.91V10.929C406.91 10.2373 406.808 9.6839 406.605 9.26886C406.402 8.84568 406.104 8.54051 405.714 8.35333C405.323 8.15802 404.843 8.06036 404.273 8.06036C403.712 8.06036 403.199 8.17837 402.735 8.41437C402.28 8.65037 401.885 8.97589 401.551 9.39093C401.226 9.80597 400.969 10.282 400.782 10.8192C400.603 11.3481 400.514 11.9096 400.514 12.5037ZM418.092 19.8524C417.172 19.8524 416.338 19.6977 415.589 19.3885C414.849 19.0711 414.21 18.6276 413.673 18.0579C413.144 17.4883 412.737 16.8128 412.452 16.0316C412.167 15.2503 412.025 14.3958 412.025 13.4681V12.9554C412.025 11.8812 412.184 10.9249 412.501 10.0867C412.818 9.24038 413.25 8.52423 413.795 7.93829C414.34 7.35236 414.959 6.90883 415.65 6.60773C416.342 6.30662 417.058 6.15607 417.799 6.15607C418.743 6.15607 419.557 6.31883 420.24 6.64435C420.932 6.96987 421.498 7.4256 421.937 8.01154C422.376 8.58934 422.702 9.27293 422.914 10.0623C423.125 10.8436 423.231 11.6981 423.231 12.6258V13.639H413.368V11.7957H420.973V11.6248C420.94 11.0389 420.818 10.4692 420.606 9.91583C420.403 9.36245 420.077 8.90672 419.63 8.54865C419.182 8.19057 418.572 8.01154 417.799 8.01154C417.286 8.01154 416.814 8.1214 416.383 8.34113C415.951 8.55271 415.581 8.8701 415.272 9.29327C414.963 9.71645 414.723 10.2332 414.552 10.8436C414.381 11.4539 414.295 12.1579 414.295 12.9554V13.4681C414.295 14.0947 414.381 14.6847 414.552 15.2381C414.731 15.7833 414.987 16.2635 415.321 16.6785C415.663 17.0936 416.074 17.4191 416.554 17.6551C417.042 17.8911 417.595 18.0091 418.214 18.0091C419.011 18.0091 419.687 17.8463 420.24 17.5208C420.794 17.1953 421.278 16.7599 421.693 16.2147L423.06 17.3011C422.775 17.7324 422.413 18.1434 421.974 18.534C421.534 18.9246 420.993 19.242 420.35 19.4861C419.715 19.7303 418.963 19.8524 418.092 19.8524Z" fill="white"/>
</svg>
