<svg width="129" height="23" viewBox="0 0 129 23" fill="none" xmlns="http://www.w3.org/2000/svg">
<path d="M6.509 3.79358C4.83767 3.79358 4.002 4.34558 4.002 5.44958C4.002 5.94025 4.209 6.31592 4.623 6.57658C5.037 6.83725 6.003 7.21292 7.521 7.70358C9.05433 8.19425 10.1277 8.75392 10.741 9.38258C11.3543 9.99592 11.661 10.9466 11.661 12.2346C11.661 13.8753 11.1627 15.1173 10.166 15.9606C9.16933 16.8039 7.866 17.2256 6.256 17.2256C5.06 17.2256 3.59567 17.0416 1.863 16.6736L1.035 16.5126L1.357 14.0516C3.41167 14.3276 4.98333 14.4656 6.072 14.4656C7.69733 14.4656 8.51 13.7909 8.51 12.4416C8.51 11.9509 8.31833 11.5676 7.935 11.2916C7.567 11.0156 6.82333 10.7166 5.704 10.3946C3.92533 9.88858 2.668 9.29058 1.932 8.60058C1.21133 7.89525 0.851 6.92158 0.851 5.67958C0.851 4.11558 1.32633 2.95025 2.277 2.18358C3.22767 1.41692 4.531 1.03358 6.187 1.03358C7.32167 1.03358 8.763 1.18692 10.511 1.49358L11.339 1.65458L11.086 4.16158C8.924 3.91625 7.39833 3.79358 6.509 3.79358ZM13.9367 16.9496V5.44958H17.0187V16.9496H13.9367ZM13.9367 3.97758V0.849584H17.0187V3.97758H13.9367ZM30.2854 18.3756C30.2854 19.6943 29.7794 20.6679 28.7674 21.2966C27.7554 21.9253 26.3831 22.2396 24.6504 22.2396C22.9331 22.2396 21.6068 22.0096 20.6714 21.5496C19.7514 21.0896 19.2914 20.2539 19.2914 19.0426C19.2914 18.0766 19.8434 17.1643 20.9474 16.3056C20.3801 15.9223 20.0964 15.3396 20.0964 14.5576C20.0964 14.2509 20.3264 13.7449 20.7864 13.0396L20.9934 12.7176C19.9508 11.9663 19.4294 10.8623 19.4294 9.40558C19.4294 7.93358 19.8664 6.86792 20.7404 6.20858C21.6298 5.54925 22.8028 5.21958 24.2594 5.21958C24.9188 5.21958 25.5704 5.29625 26.2144 5.44958L26.5824 5.51858L30.2854 5.40358V7.86458L28.5604 7.72658C28.8978 8.24792 29.0664 8.76925 29.0664 9.29058C29.0664 10.8239 28.6754 11.8819 27.8934 12.4646C27.1114 13.0473 25.8848 13.3386 24.2134 13.3386C23.8608 13.3386 23.5464 13.3079 23.2704 13.2466C23.1171 13.6453 23.0404 13.9749 23.0404 14.2356C23.0404 14.4809 23.1708 14.6496 23.4314 14.7416C23.6921 14.8336 24.3054 14.8873 25.2714 14.9026C27.2034 14.9179 28.5221 15.1786 29.2274 15.6846C29.9328 16.1753 30.2854 17.0723 30.2854 18.3756ZM22.3274 18.7206C22.3274 19.3799 23.1324 19.7096 24.7424 19.7096C26.3678 19.7096 27.1804 19.3263 27.1804 18.5596C27.1804 18.1456 27.0424 17.8773 26.7664 17.7546C26.4904 17.6473 25.9078 17.5859 25.0184 17.5706L22.9484 17.4096C22.5344 17.8236 22.3274 18.2606 22.3274 18.7206ZM22.5114 9.31358C22.5114 10.4329 23.0941 10.9926 24.2594 10.9926C25.4401 10.9926 26.0304 10.4329 26.0304 9.31358C26.0304 8.17892 25.4401 7.61158 24.2594 7.61158C23.0941 7.61158 22.5114 8.17892 22.5114 9.31358ZM40.9616 9.03758V13.8216C40.9922 14.1896 41.0536 14.4503 41.1456 14.6036C41.2376 14.7416 41.4292 14.8413 41.7206 14.9026L41.6286 17.2256C40.8466 17.2256 40.2179 17.1719 39.7426 17.0646C39.2826 16.9573 38.8149 16.7426 38.3396 16.4206C37.2356 16.9573 36.1086 17.2256 34.9586 17.2256C32.5819 17.2256 31.3936 15.9683 31.3936 13.4536C31.3936 12.2269 31.7232 11.3606 32.3826 10.8546C33.0419 10.3333 34.0539 10.0266 35.4186 9.93458L37.8796 9.75058V9.03758C37.8796 8.56225 37.7722 8.24025 37.5576 8.07158C37.3429 7.88758 36.9979 7.79558 36.5226 7.79558L32.1986 7.97958L32.1066 5.84058C33.7472 5.39592 35.3036 5.17358 36.7756 5.17358C38.2629 5.17358 39.3286 5.48025 39.9726 6.09358C40.6319 6.70692 40.9616 7.68825 40.9616 9.03758ZM35.7866 12.0736C34.9279 12.1503 34.4986 12.6103 34.4986 13.4536C34.4986 14.2969 34.8742 14.7186 35.6256 14.7186C36.2082 14.7186 36.8446 14.6266 37.5346 14.4426L37.8796 14.3506V11.8896L35.7866 12.0736ZM43.7616 12.2346V9.42858H50.5696V12.2346H43.7616ZM56.3703 16.9496H53.2883V5.44958H56.3473V6.09358C57.39 5.48025 58.3483 5.17358 59.2223 5.17358C60.7556 5.17358 61.8136 5.62592 62.3963 6.53058C62.979 7.43525 63.2703 8.83058 63.2703 10.7166V16.9496H60.1883V10.8086C60.1883 9.82725 60.0733 9.10658 59.8433 8.64658C59.6133 8.17125 59.1533 7.93358 58.4633 7.93358C57.8346 7.93358 57.229 8.04092 56.6463 8.25558L56.3703 8.34758V16.9496ZM66.6222 6.76058C67.4349 5.70258 68.7919 5.17358 70.6932 5.17358C72.5945 5.17358 73.9515 5.70258 74.7642 6.76058C75.5769 7.80325 75.9832 9.27525 75.9832 11.1766C75.9832 15.2093 74.2199 17.2256 70.6932 17.2256C67.1665 17.2256 65.4032 15.2093 65.4032 11.1766C65.4032 9.27525 65.8095 7.80325 66.6222 6.76058ZM68.9912 13.7756C69.3132 14.3276 69.8805 14.6036 70.6932 14.6036C71.5059 14.6036 72.0655 14.3276 72.3722 13.7756C72.6942 13.2236 72.8552 12.3573 72.8552 11.1766C72.8552 9.99592 72.6942 9.13725 72.3722 8.60058C72.0655 8.06392 71.5059 7.79558 70.6932 7.79558C69.8805 7.79558 69.3132 8.06392 68.9912 8.60058C68.6845 9.13725 68.5312 9.99592 68.5312 11.1766C68.5312 12.3573 68.6845 13.2236 68.9912 13.7756ZM86.4994 8.32458C84.5981 8.07925 83.2641 7.95658 82.4974 7.95658C81.7461 7.95658 81.2554 8.02558 81.0254 8.16358C80.8107 8.30158 80.7034 8.52392 80.7034 8.83058C80.7034 9.12192 80.8491 9.32892 81.1404 9.45158C81.4471 9.55892 82.2137 9.72758 83.4404 9.95758C84.6824 10.1723 85.5641 10.5326 86.0854 11.0386C86.6067 11.5446 86.8674 12.3649 86.8674 13.4996C86.8674 15.9836 85.3264 17.2256 82.2444 17.2256C81.2324 17.2256 80.0057 17.0876 78.5644 16.8116L77.8284 16.6736L77.9204 14.0976C79.8217 14.3429 81.1404 14.4656 81.8764 14.4656C82.6277 14.4656 83.1337 14.3966 83.3944 14.2586C83.6704 14.1053 83.8084 13.8829 83.8084 13.5916C83.8084 13.3003 83.6627 13.0856 83.3714 12.9476C83.0954 12.8096 82.3594 12.6409 81.1634 12.4416C79.9827 12.2423 79.1011 11.9049 78.5184 11.4296C77.9357 10.9543 77.6444 10.1109 77.6444 8.89958C77.6444 7.67292 78.0584 6.75292 78.8864 6.13958C79.7144 5.51092 80.7801 5.19658 82.0834 5.19658C82.9881 5.19658 84.2224 5.34225 85.7864 5.63358L86.5454 5.77158L86.4994 8.32458ZM96.6748 12.5106C96.6901 13.2159 96.8741 13.7296 97.2268 14.0516C97.5948 14.3583 98.1161 14.5116 98.7907 14.5116C100.217 14.5116 101.489 14.4656 102.609 14.3736L103.253 14.3046L103.299 16.5816C101.535 17.0109 99.9408 17.2256 98.5148 17.2256C96.7821 17.2256 95.5248 16.7656 94.7428 15.8456C93.9608 14.9256 93.5698 13.4306 93.5698 11.3606C93.5698 7.23592 95.2641 5.17358 98.6528 5.17358C101.995 5.17358 103.667 6.90625 103.667 10.3716L103.437 12.5106H96.6748ZM100.631 10.1646C100.631 9.24458 100.485 8.60825 100.194 8.25558C99.9024 7.88758 99.3888 7.70358 98.6528 7.70358C97.9321 7.70358 97.4184 7.89525 97.1118 8.27858C96.8204 8.64658 96.6671 9.27525 96.6518 10.1646H100.631ZM108.951 16.9496H105.869V5.44958H108.928V6.09358C109.986 5.48025 110.891 5.17358 111.642 5.17358C112.884 5.17358 113.843 5.53392 114.517 6.25458C115.928 5.53392 117.216 5.17358 118.381 5.17358C119.899 5.17358 120.95 5.61825 121.532 6.50758C122.13 7.38158 122.429 8.78458 122.429 10.7166V16.9496H119.347V10.8086C119.347 9.82725 119.24 9.10658 119.025 8.64658C118.811 8.17125 118.381 7.93358 117.737 7.93358C117.247 7.93358 116.649 8.04092 115.943 8.25558L115.598 8.37058C115.66 9.52058 115.69 10.3946 115.69 10.9926V16.9496H112.608V11.0386C112.608 9.90392 112.509 9.10658 112.309 8.64658C112.11 8.17125 111.673 7.93358 110.998 7.93358C110.4 7.93358 109.81 8.04092 109.227 8.25558L108.951 8.34758V16.9496ZM125.025 10.3026V6.48458H128.337V10.3026H125.025ZM125.025 16.9496V13.1316H128.337V16.9496H125.025Z" fill="white"/>
</svg>
